# xmcd
# Track frame offsets:
# 150
# 17448
# 32247
# 47842
# 62119
# 75459
# 90563
# 103892
# 121052
# 135034
# 146860
# 166010
# 178701
# 193854
# 208311
#
# Disc length: 2965 seconds
# Revision: 0
# Processed by: cddbd v1.4PL0 Copyright (c) Steve Scherf et al.
# Submitted via: VisiTrax 2.9.5.180 - For more info visit www.synapsa.com
#
DISCID=c90b930f
DTITLE=Don Williams - Don Williams
DYEAR=1999
DGENRE=
TTITLE0=Heartbeat in darkness
TTITLE1=We've got a good fire going
TTITLE2=Then it's love
TTITLE3=I'll never be in love again
TTITLE4=Looking back
TTITLE5=I wouldn't be a man
TTITLE6=Running out of reasons to run
TTITLE7=Old coyote town
TTITLE8=Come from the heart
TTITLE9=We got love
TTITLE10=Senorita
TTITLE11=Shot full of love
TTITLE12=Easy touch
TTITLE13=Another place, another time
TTITLE14=Desperately
EXTD=
EXTT0=
EXTT1=
EXTT2=
EXTT3=
EXTT4=
EXTT5=
EXTT6=
EXTT7=
EXTT8=
EXTT9=
EXTT10=
EXTT11=
EXTT12=
EXTT13=
EXTT14=
PLAYORDER=
